<svg width="151" height="63" viewBox="0 0 151 63" fill="none" xmlns="http://www.w3.org/2000/svg">
<g clip-path="url(#clip0_8_31)">
<path d="M108 48.3449C108 47.2708 108.928 46.4341 109.992 46.5495L143.055 50.1377C147.132 50.5802 150.568 47.1185 150.113 43.0274C149.644 38.8146 145.316 36.2002 141.389 37.7578L110.46 50.0244C109.279 50.4926 108 49.6192 108 48.3449Z" fill="url(#paint0_linear_8_31)"/>
</g>
<path d="M3.6 50V14.85H10.4V50H3.6ZM25.65 50V14.85H32.45V50H25.65ZM7.9 34.85V28.85H27.55V34.85H7.9ZM49.0352 50.5C46.8352 50.5 44.8518 49.95 43.0852 48.85C41.3185 47.75 39.9352 46.25 38.9352 44.35C37.9352 42.45 37.4352 40.3167 37.4352 37.95C37.4352 35.55 37.9352 33.4 38.9352 31.5C39.9352 29.6 41.3185 28.1 43.0852 27C44.8518 25.9 46.8352 25.35 49.0352 25.35C50.7685 25.35 52.3185 25.7 53.6852 26.4C55.0518 27.1 56.1352 28.0833 56.9352 29.35C57.7685 30.5833 58.2185 31.9833 58.2852 33.55V42.25C58.2185 43.85 57.7685 45.2667 56.9352 46.5C56.1352 47.7333 55.0518 48.7167 53.6852 49.45C52.3185 50.15 50.7685 50.5 49.0352 50.5ZM50.2352 44.45C52.0685 44.45 53.5518 43.85 54.6852 42.65C55.8185 41.4167 56.3852 39.8333 56.3852 37.9C56.3852 36.6333 56.1185 35.5167 55.5852 34.55C55.0852 33.55 54.3685 32.7833 53.4352 32.25C52.5352 31.6833 51.4685 31.4 50.2352 31.4C49.0352 31.4 47.9685 31.6833 47.0352 32.25C46.1352 32.7833 45.4185 33.55 44.8852 34.55C44.3852 35.5167 44.1352 36.6333 44.1352 37.9C44.1352 39.2 44.3852 40.35 44.8852 41.35C45.4185 42.3167 46.1352 43.0833 47.0352 43.65C47.9685 44.1833 49.0352 44.45 50.2352 44.45ZM56.0352 50V43.5L57.0852 37.6L56.0352 31.8V25.85H62.5352V50H56.0352ZM68.3297 50V13.85H74.8797V50H68.3297ZM92.0332 50.5C89.5999 50.5 87.3999 49.95 85.4332 48.85C83.4999 47.7167 81.9499 46.2 80.7832 44.3C79.6499 42.3667 79.0832 40.2167 79.0832 37.85C79.0832 35.4833 79.6499 33.3667 80.7832 31.5C81.9165 29.6 83.4665 28.1 85.4332 27C87.3999 25.8667 89.5832 25.3 91.9832 25.3C94.4499 25.3 96.6499 25.8667 98.5832 27C100.55 28.1 102.1 29.6 103.233 31.5C104.367 33.3667 104.933 35.4833 104.933 37.85C104.933 40.2167 104.367 42.3667 103.233 44.3C102.1 46.2 100.55 47.7167 98.5832 48.85C96.6499 49.95 94.4665 50.5 92.0332 50.5ZM91.9832 44.4C93.2165 44.4 94.2999 44.1333 95.2332 43.6C96.1999 43.0333 96.9332 42.2667 97.4332 41.3C97.9665 40.3 98.2332 39.1667 98.2332 37.9C98.2332 36.6333 97.9665 35.5167 97.4332 34.55C96.8999 33.5833 96.1665 32.8333 95.2332 32.3C94.2999 31.7333 93.2165 31.45 91.9832 31.45C90.7832 31.45 89.7165 31.7333 88.7832 32.3C87.8499 32.8333 87.1165 33.5833 86.5832 34.55C86.0499 35.5167 85.7832 36.6333 85.7832 37.9C85.7832 39.1667 86.0499 40.3 86.5832 41.3C87.1165 42.2667 87.8499 43.0333 88.7832 43.6C89.7165 44.1333 90.7832 44.4 91.9832 44.4ZM109.85 50V14.85H114.6L116.65 21.65V50H109.85ZM134.15 50L113.3 23L114.6 14.85L135.45 41.85L134.15 50ZM134.15 50L132.2 43.4V14.85H139.05V50H134.15Z" fill="white"/>
<defs>
<linearGradient id="paint0_linear_8_31" x1="150.154" y1="43.7396" x2="108" y2="43.7396" gradientUnits="userSpaceOnUse">
<stop stop-color="#004F2D"/>
<stop offset="1" stop-color="#00B567"/>
</linearGradient>
<clipPath id="clip0_8_31">
<rect width="43" height="14" fill="white" transform="translate(108 37)"/>
</clipPath>
</defs>
</svg>
